<svg xmlns="http://www.w3.org/2000/svg" width="16.152" height="16" viewBox="0 0 16.152 16">
  <g id="Bcard_icon" transform="translate(205 -636)">
    <rect id="Rectangle_3637" data-name="Rectangle 3637" width="16" height="16" transform="translate(-205 636)" fill="red" opacity="0"/>
    <path id="_2627798" data-name="2627798" d="M14.589,64H1.563A1.565,1.565,0,0,0,0,65.563v8.858a1.565,1.565,0,0,0,1.563,1.563H14.589a1.565,1.565,0,0,0,1.563-1.563V65.563A1.565,1.565,0,0,0,14.589,64Zm-12.5,3.126a1.3,1.3,0,0,1,1.3-1.3H4.429a1.3,1.3,0,0,1,1.3,1.3v1.042a1.3,1.3,0,0,1-1.3,1.3H3.387a1.3,1.3,0,0,1-1.3-1.3Zm.521,3.387h.782a.521.521,0,1,1,0,1.042H2.605a.521.521,0,1,1,0-1.042ZM6.09,73.639H2.605a.521.521,0,0,1,0-1.042H6.09a.521.521,0,0,1,0,1.042Zm.684-2.084H5.21a.521.521,0,1,1,0-1.042H6.773a.521.521,0,1,1,0,1.042Zm3.387,0H8.6a.521.521,0,1,1,0-1.042H10.16a.521.521,0,1,1,0,1.042Zm2.605,0h-.782a.521.521,0,1,1,0-1.042h.782a.521.521,0,1,1,0,1.042Z" transform="translate(-205 574.008)" fill="#fff"/>
  </g>
</svg>
