<svg xmlns="http://www.w3.org/2000/svg" width="22.385" height="15.275" viewBox="0 0 22.385 15.275"><g transform="translate(-746 -333.863)"><path d="M235.715,457.982h-2.738v-2.738a.78.78,0,0,0-1.56,0v2.738h-2.738a.78.78,0,0,0,0,1.56h2.738v2.738a.78.78,0,0,0,1.56,0v-2.738h2.738a.78.78,0,1,0,0-1.56Z" transform="translate(531.89 -116.477)" fill="#244e37"/><g transform="translate(540.737 -266.481)"><path d="M211.86,670.352c-1.789,0-3.579,0-5.369,0-.878,0-1.275-.427-1.224-1.289a5.933,5.933,0,0,1,5.962-5.669,14.126,14.126,0,0,1,2.515.119,5.889,5.889,0,0,1,4.837,5.55c.043.872-.344,1.287-1.227,1.289C215.523,670.355,213.692,670.352,211.86,670.352Zm0-.654q2.648,0,5.3,0c.731,0,.781-.059.731-.806a5.188,5.188,0,0,0-4.272-4.733,12.848,12.848,0,0,0-2.763-.1,5.244,5.244,0,0,0-4.893,4.829c-.05.744,0,.805.731.806Q209.277,669.7,211.862,669.7Z" transform="translate(0 -54.735)" fill="#476353"/><path d="M236.779,603.973a3.585,3.585,0,1,1-3.515-3.629A3.6,3.6,0,0,1,236.779,603.973Zm-.665-.018a2.921,2.921,0,1,0-2.944,2.91A2.931,2.931,0,0,0,236.114,603.955Z" transform="translate(-21.269 0)" fill="#476353"/><path d="M216.586,674.141q-2.585,0-5.17,0c-.728,0-.781-.062-.731-.806a5.244,5.244,0,0,1,4.893-4.828,12.851,12.851,0,0,1,2.763.1,5.188,5.188,0,0,1,4.272,4.733c.05.747,0,.805-.731.806Q219.234,674.143,216.586,674.141Z" transform="translate(-4.724 -59.178)" fill="#37987b"/><path d="M240.7,608.48a2.921,2.921,0,1,1-2.9-2.957A2.925,2.925,0,0,1,240.7,608.48Z" transform="translate(-25.854 -4.525)" fill="#37987b"/></g></g></svg>