<svg xmlns="http://www.w3.org/2000/svg" width="18.676" height="18.435" viewBox="0 0 18.676 18.435"><g transform="translate(-1198.66 -215.198)"><g transform="translate(1199.16 215.698)"><path d="M368.919,184.9h-7.9a.864.864,0,0,0-.862.862v13.386a.862.862,0,0,0,.862.862H374.68a.862.862,0,0,0,.862-.862V191.72" transform="translate(-360.16 -182.57)" fill="none" stroke="#ff962d" stroke-linecap="round" stroke-miterlimit="10" stroke-width="1"/><path d="M396.005,181.134l4.041-1.2,8.4-7.917a.287.287,0,0,0,.005-.413l-2.838-2.821a.287.287,0,0,0-.407,0l-8.115,8.192Z" transform="translate(-390.858 -168.698)" fill="none" stroke="#ff962d" stroke-linecap="round" stroke-linejoin="round" stroke-miterlimit="10" stroke-width="1"/><line x2="3.233" y2="3.076" transform="translate(11.92 2.534)" fill="none" stroke="#ff962d" stroke-miterlimit="10" stroke-width="1"/><line x2="2.957" y2="2.957" transform="translate(6.231 8.277)" fill="none" stroke="#ff962d" stroke-miterlimit="10" stroke-width="1"/></g></g></svg>