<svg xmlns="http://www.w3.org/2000/svg" width="22.096" height="22" viewBox="0 0 22.096 22"><g transform="translate(-3592.904 1938)"><rect width="22" height="22" transform="translate(3593 -1938)" fill="#fff" opacity="0"/><g transform="translate(3478.065 -2049.318)"><path d="M892.135,526.624a3.649,3.649,0,0,1,.324,2.17,2.167,2.167,0,0,0,4.315-.134,11.857,11.857,0,0,1,.324-2.17l-1.473,1.307-1.7.031A8.827,8.827,0,0,1,892.135,526.624Z" transform="translate(-769.074 -402.371)" fill="#bfe2cf"/><path d="M851.75,541.448a2.208,2.208,0,0,1-4.417,0l-6.481,3.026-.008.086-1.655,3.379h21.322l-2-3.421Z" transform="translate(-724 -415.329)" fill="#9bbeaa" stroke="#476f5a" stroke-linecap="round" stroke-linejoin="round" stroke-miterlimit="10" stroke-width="0.7"/><g transform="translate(122.821 118.127)"><circle cx="0.324" cy="0.324" r="0.324" transform="translate(0.829 1.025)" fill="#476f5a"/><circle cx="0.324" cy="0.324" r="0.324" transform="translate(4.019 0.959)" fill="#476f5a"/><path d="M893.09,488.982a2.59,2.59,0,0,1,1.638,0l.039-.269a2.346,2.346,0,0,0-1.677,0Z" transform="translate(-892.723 -487.632)" fill="#476f5a"/><path d="M892.845,492.444a2.417,2.417,0,0,0,1.638-.144A1.487,1.487,0,0,1,892.845,492.444Z" transform="translate(-892.511 -490.878)" fill="#476f5a"/><path d="M916.956,488.489a2.592,2.592,0,0,1,1.638,0l.039-.269a2.346,2.346,0,0,0-1.677,0Z" transform="translate(-913.399 -487.205)" fill="#476f5a"/><path d="M916.824,491.823a2.416,2.416,0,0,0,1.638.142A1.487,1.487,0,0,1,916.824,491.823Z" transform="translate(-913.284 -490.465)" fill="#476f5a"/><path d="M890.346,482.55l.642-.314,1.533.052.033-.472-1.559-.151-.563.491Z" transform="translate(-890.346 -481.665)" fill="#476f5a"/><path d="M918.331,482.55l-.642-.314-1.533.052-.033-.472,1.559-.151.563.491Z" transform="translate(-912.677 -481.665)" fill="#476f5a"/></g><path d="M908.8,458.5" transform="translate(-783.514 -343.471)" fill="none" stroke="#e81e25" stroke-miterlimit="10" stroke-width="1"/><path d="M873.442,445.8s-.982.13-1.083-1.783a1.6,1.6,0,0,1-.673-1.841s-.9-3.49,3.021-5.894a2.12,2.12,0,0,1,2.77.7,1.019,1.019,0,0,1,1.453.659,1.072,1.072,0,0,1,1.328.948,3.723,3.723,0,0,1,1.236,4.931,2.621,2.621,0,0,1-1.332,2.277s1.62-4.508-3.4-6.353C876.763,439.443,872.265,440.677,873.442,445.8Z" transform="translate(-751.282 -324)" fill="#476f5a"/><g transform="translate(124.069 119.881)"><path d="M906.5,520.3h1.36l-.325.28h-.71Z" transform="translate(-905.591 -516.885)" fill="#476f5a"/><path d="M908.077,494.783a4.123,4.123,0,0,0,.123,1.384s.243.846-.719.755c0,0-.3.008-.382-.153,0,0,.817.046.809-.336a5.156,5.156,0,0,1,.138-1.585" transform="translate(-906.107 -494.783)" fill="#476f5a"/><path d="M900.675,511.731s-.863.146-.993.818h1.442l.149-.149v-.706Z" transform="translate(-899.682 -509.433)" fill="#476f5a"/><path d="M912.189,511.731s.863.146.993.818H911.74l-.15-.149v-.706Z" transform="translate(-909.998 -509.433)" fill="#476f5a"/></g><path d="M889.466,524.387a6.314,6.314,0,0,0,2.08,1.631h1.706a7.647,7.647,0,0,0,1.769-1.631" transform="translate(-766.762 -400.549)" fill="none" stroke="#476f5a" stroke-miterlimit="10" stroke-width="0.5"/><line y1="1.537" transform="translate(120.517 131.072)" fill="#fbb" stroke="#476f5a" stroke-linecap="round" stroke-miterlimit="10" stroke-width="0.7"/><line y1="1.537" transform="translate(130.811 131.072)" fill="#fbb" stroke="#476f5a" stroke-linecap="round" stroke-miterlimit="10" stroke-width="0.7"/><g transform="translate(128.475 123.571)"><g transform="translate(2.611 2.376)"><path d="M-1808.83-1242.308l1.469.858,1.518-.858v3.548a1.869,1.869,0,0,1-1.494,1.122,1.7,1.7,0,0,1-1.494-1.221Z" transform="translate(1808.83 1242.308)" fill="#e8e23a" stroke="#bdb82d" stroke-miterlimit="10" stroke-width="0.4"/></g><path d="M0,1.914V0" transform="translate(4.104 7.047)" fill="none" stroke="#bdb82d" stroke-linecap="round" stroke-width="0.5"/><line y1="1.914" transform="translate(4.104)" fill="none" stroke="#bdb82d" stroke-linecap="round" stroke-miterlimit="10" stroke-width="0.4"/><line y1="0.825" transform="translate(4.996 0.545)" fill="none" stroke="#bdb82d" stroke-linecap="round" stroke-miterlimit="10" stroke-width="0.4"/><line y1="0.825" transform="translate(3.213 0.545)" fill="none" stroke="#bdb82d" stroke-linecap="round" stroke-miterlimit="10" stroke-width="0.4"/><line x2="1.205" y2="0.644" transform="translate(2.611 3.614)" fill="none" stroke="#bdb82d" stroke-miterlimit="10" stroke-width="0.4"/><line x2="1.205" y2="0.644" transform="translate(2.611 4.793)" fill="none" stroke="#bdb82d" stroke-miterlimit="10" stroke-width="0.4"/><line x1="1.205" y2="0.644" transform="translate(4.393 3.614)" fill="none" stroke="#bdb82d" stroke-miterlimit="10" stroke-width="0.4"/><line x1="1.205" y2="0.644" transform="translate(4.393 4.793)" fill="none" stroke="#bdb82d" stroke-miterlimit="10" stroke-width="0.4"/><path d="M-1776.771-1217.548l.924.611.974-.611v1.733a1.245,1.245,0,0,1-.949.776,1.076,1.076,0,0,1-.949-.76Z" transform="translate(1783.079 1222.779)" fill="#e8e23a" stroke="#bdb82d" stroke-miterlimit="10" stroke-width="0.4"/><line y2="1.221" transform="translate(7.256 7.74)" fill="none" stroke="#bdb82d" stroke-linecap="round" stroke-miterlimit="10" stroke-width="0.4"/><line y2="1.014" transform="translate(7.256 4.712)" fill="none" stroke="#bdb82d" stroke-linecap="round" stroke-miterlimit="10" stroke-width="0.4"/><path d="M-1831.473-1217.548l.924.611.974-.611v1.733a1.245,1.245,0,0,1-.949.776,1.076,1.076,0,0,1-.949-.76Z" transform="translate(1831.473 1222.779)" fill="#e8e23a" stroke="#bdb82d" stroke-miterlimit="10" stroke-width="0.4"/><line y2="1.221" transform="translate(0.949 7.74)" fill="none" stroke="#bdb82d" stroke-linecap="round" stroke-miterlimit="10" stroke-width="0.4"/><line y2="1.014" transform="translate(0.949 4.712)" fill="none" stroke="#bdb82d" stroke-linecap="round" stroke-miterlimit="10" stroke-width="0.4"/></g></g></g></svg>