<svg xmlns="http://www.w3.org/2000/svg" width="22" height="22" viewBox="0 0 22 22"><g transform="translate(-3593 1779)"><rect width="22" height="22" transform="translate(3593 -1779)" fill="#fff" opacity="0"/><g transform="translate(3267.063 -2425.262)"><path d="M339.106,684.579c-.232-.053-.468-.094-.7-.164a2.824,2.824,0,0,1-1.286-.841.386.386,0,0,0-.257-.108c-1.418-.006-2.837,0-4.255,0-.905,0-1.811-.013-2.716,0a2.452,2.452,0,0,1-1.821-.8,7.083,7.083,0,0,1-1.905-4.342,7.11,7.11,0,0,1,3.1-6.427c.769-.565,1.543-1.123,2.311-1.689a3.053,3.053,0,0,1,1.787-.608c.956-.018,1.913-.012,2.869,0a3.079,3.079,0,0,1,1.729.584q1.253.854,2.509,1.7a6.772,6.772,0,0,1,2.1,2.213.5.5,0,0,0,.56.3,9.031,9.031,0,0,1,3.219.209,4.689,4.689,0,0,1,1.063.468.648.648,0,0,1,.3.6q0,2.023,0,4.047c0,.676-.023,1.353.007,2.028a1.1,1.1,0,0,1-.689,1.1,5.653,5.653,0,0,1-1.96.546,7.726,7.726,0,0,1-2.923-.175.43.43,0,0,0-.549.2,2.707,2.707,0,0,1-1.988,1.1.926.926,0,0,0-.156.042ZM342,674.5c0,.016,0-.007-.007-.023a6.385,6.385,0,0,0-1.763-1.893c-.812-.565-1.641-1.106-2.45-1.675a3.049,3.049,0,0,0-1.973-.606c-.769.038-1.541.007-2.312.007a2.633,2.633,0,0,0-1.588.531c-.662.483-1.313.979-1.987,1.444a6.921,6.921,0,0,0-2.516,2.921,6.357,6.357,0,0,0-.5,3.5,6.5,6.5,0,0,0,1.24,2.979,2.215,2.215,0,0,0,1.845,1.094c1.653-.015,3.306-.01,4.959-.013h1.616a3.017,3.017,0,0,1,.7-3.169,2.882,2.882,0,0,1,3.125-.652c.021-.036.033-.047.033-.06,0-1.049.017-2.1,0-3.147a.777.777,0,0,1,.458-.775C341.246,674.788,341.626,674.654,342,674.5Zm-2.691,9.361a2.208,2.208,0,0,0,2.2-2.223,2.179,2.179,0,0,0-2.28-2.179,2.156,2.156,0,0,0-2.123,2.185A2.188,2.188,0,0,0,339.313,683.86Zm7.683-7.4a10.066,10.066,0,0,1-5.876,0c0,.344.008.671,0,1a.343.343,0,0,0,.2.347,3.078,3.078,0,0,0,.405.188,7.245,7.245,0,0,0,3.826.243,3.3,3.3,0,0,0,1.291-.471c.065-.045.152-.121.154-.186C347,677.2,347,676.827,347,676.458Zm-5.876,2.068c0,.2.01.394,0,.584a.469.469,0,0,0,.188.44,2.067,2.067,0,0,1,.4.469.653.653,0,0,0,.4.29,7.464,7.464,0,0,0,3.3.142,3.716,3.716,0,0,0,1.4-.47c.077-.05.18-.138.183-.213.018-.411.009-.823.009-1.24A7.968,7.968,0,0,1,341.119,678.526ZM347,680.832a10.415,10.415,0,0,1-4.764.3l-.09,1.376c-.009-.005.008.009.028.014a7.512,7.512,0,0,0,3.443.074,7.388,7.388,0,0,0,1.212-.443.311.311,0,0,0,.164-.221C347,681.575,347,681.211,347,680.832Zm-.038-5.213c-1.04-.771-5.022-.7-5.781.015C342.14,676.382,346.052,676.355,346.958,675.619Z" transform="translate(0 -16.317)" fill="#476f5a"/><path d="M346.678,646.333c.267.058.535.114.8.174a1.053,1.053,0,0,1,.542,1.8,4.8,4.8,0,0,0-1,1.7,1.013,1.013,0,0,1-1,.694c-.912,0-1.824,0-2.735,0a.953.953,0,0,1-.9-.6,6.144,6.144,0,0,0-1.21-1.795,1.046,1.046,0,0,1,.54-1.784c.281-.062.562-.119.844-.178h.385c.01.01.019.028.029.029a2.579,2.579,0,0,1,1.4.541.4.4,0,0,0,.471-.009c.34-.181.7-.336,1.052-.485a1.849,1.849,0,0,1,.386-.075Zm-2,3.654h1.237c.324,0,.376-.05.507-.344a11.108,11.108,0,0,1,.543-1.106,5.575,5.575,0,0,1,.547-.7c.218-.264.158-.53-.157-.63a2.2,2.2,0,0,0-2.09.251,1,1,0,0,1-1.317,0,2.22,2.22,0,0,0-2.13-.237.333.333,0,0,0-.143.576A6.514,6.514,0,0,1,343,649.74a.381.381,0,0,0,.4.251C343.825,649.979,344.252,649.987,344.678,649.987Z" transform="translate(-10.313)" fill="#476f5a"/><path d="M351.2,646.333a1.848,1.848,0,0,0-.386.075c-.356.15-.711.3-1.052.485a.4.4,0,0,1-.471.009,2.579,2.579,0,0,0-1.4-.541c-.01,0-.019-.019-.029-.029Z" transform="translate(-15.223)" fill="none"/><path d="M350.5,663.389V663h-4.3c-.276-.006-.45-.146-.445-.358s.173-.352.451-.352q2.1,0,4.2,0l.458,0a.367.367,0,0,1,.353.358,4.944,4.944,0,0,1,0,.642.334.334,0,0,0,.21.355,1.129,1.129,0,0,0,1.248-.065c.047-.033.09-.07.136-.1a.343.343,0,0,1,.494.044.386.386,0,0,1-.055.5,1.811,1.811,0,0,1-2.224.192.8.8,0,0,0-.477-.138q-1.97.008-3.94,0a.717.717,0,0,1-.308-.048.278.278,0,0,1-.148-.362.757.757,0,0,1,.291-.265c.051-.033.139-.009.211-.009H350.5Z" transform="translate(-13.744 -11.188)" fill="#476f5a"/><path d="M343.614,676.149c-.379.155-.758.289-1.118.463a.777.777,0,0,0-.458.775c.013,1.049,0,2.1,0,3.147,0,.012-.013.024-.033.06a2.882,2.882,0,0,0-3.125.652,3.017,3.017,0,0,0-.7,3.169h-1.616c-1.653,0-3.306,0-4.959.013a2.215,2.215,0,0,1-1.845-1.094,6.5,6.5,0,0,1-1.24-2.979,6.357,6.357,0,0,1,.5-3.5,6.922,6.922,0,0,1,2.516-2.921c.674-.464,1.325-.961,1.987-1.444a2.632,2.632,0,0,1,1.588-.531c.771,0,1.543.031,2.312-.007a3.05,3.05,0,0,1,1.973.606c.808.57,1.638,1.111,2.45,1.676a6.382,6.382,0,0,1,1.763,1.893C343.617,676.143,343.619,676.165,343.614,676.149Zm-13.265,2.858c0,.1,0,.141,0,.184-.014.26.093.42.293.437.238.021.35-.118.4-.393a6.382,6.382,0,0,1,.279-1.239,6.056,6.056,0,0,1,2.24-2.787,3.359,3.359,0,0,1,1.85-.686.356.356,0,1,0-.044-.706,3.674,3.674,0,0,0-1.415.358,6.526,6.526,0,0,0-2.582,2.237A5.221,5.221,0,0,0,330.349,679.008Z" transform="translate(-1.61 -17.967)" fill="#9bbeaa" stroke="#476f5a" stroke-width="0.2"/><path d="M365.04,707.03a2.188,2.188,0,0,1-2.2-2.217,2.156,2.156,0,0,1,2.123-2.185,2.179,2.179,0,0,1,2.279,2.179A2.208,2.208,0,0,1,365.04,707.03Z" transform="translate(-25.726 -39.487)" fill="#bee0cd" stroke="#476f5a" stroke-width="0.2"/><path d="M382.135,692.582c0,.369.007.745-.007,1.119,0,.065-.089.141-.154.186a3.3,3.3,0,0,1-1.291.471,7.246,7.246,0,0,1-3.826-.243,3.107,3.107,0,0,1-.405-.188.343.343,0,0,1-.2-.347c.012-.327,0-.655,0-1A10.066,10.066,0,0,0,382.135,692.582Z" transform="translate(-35.139 -32.441)" fill="#bee0cd" stroke="#476f5a" stroke-width="0.2"/><path d="M376.257,699.509a7.969,7.969,0,0,0,5.875,0c0,.417.009.829-.009,1.24,0,.075-.105.163-.183.213a3.716,3.716,0,0,1-1.4.47,7.463,7.463,0,0,1-3.3-.142.653.653,0,0,1-.4-.29,2.065,2.065,0,0,0-.4-.469.469.469,0,0,1-.188-.44C376.266,699.9,376.257,699.711,376.257,699.509Z" transform="translate(-35.137 -37.3)" fill="#bee0cd" stroke="#476f5a" stroke-width="0.2"/><path d="M384.539,707.232c0,.38.01.743-.008,1.105a.311.311,0,0,1-.164.221,7.387,7.387,0,0,1-1.212.443,7.512,7.512,0,0,1-3.443-.074c-.019-.005-.037-.019-.027-.014l.09-1.376A10.414,10.414,0,0,0,384.539,707.232Z" transform="translate(-37.543 -42.717)" fill="#bee0cd" stroke="#476f5a" stroke-width="0.2"/><path d="M382.239,688.477c-.906.737-4.818.764-5.781.015C377.217,687.777,381.2,687.707,382.239,688.477Z" transform="translate(-35.281 -29.176)" fill="#bee0cd" stroke="#476f5a" stroke-width="0.2"/><path d="M346.323,651.678c-.427,0-.854-.008-1.28,0a.381.381,0,0,1-.4-.251,6.512,6.512,0,0,0-1.323-1.946.333.333,0,0,1,.143-.576,2.22,2.22,0,0,1,2.13.237,1,1,0,0,0,1.317,0,2.2,2.2,0,0,1,2.09-.251c.315.1.375.367.157.631a5.583,5.583,0,0,0-.547.7,11.109,11.109,0,0,0-.543,1.106c-.131.294-.183.344-.507.344Z" transform="translate(-11.958 -1.691)" fill="#9bbeaa"/><path d="M334.8,683.4a5.221,5.221,0,0,1,1.017-2.593,6.527,6.527,0,0,1,2.582-2.237,3.672,3.672,0,0,1,1.415-.358.356.356,0,1,1,.044.705,3.361,3.361,0,0,0-1.85.686,6.056,6.056,0,0,0-2.24,2.787,6.392,6.392,0,0,0-.279,1.239c-.047.275-.159.413-.4.393-.2-.018-.307-.177-.293-.437C334.8,683.544,334.8,683.5,334.8,683.4Z" transform="translate(-6.057 -22.362)" fill="#476f5a" stroke="#476f5a" stroke-width="0.2"/></g></g></svg>