<svg xmlns="http://www.w3.org/2000/svg" width="23.855" height="23.855" viewBox="0 0 23.855 23.855"><g transform="translate(-3592 1832)"><rect width="22" height="22" transform="translate(3593 -1831)" fill="#fff" opacity="0"/><g transform="translate(3701.421 -15135.5)"><g transform="translate(-398.406 13054.522) rotate(-45)"><line y1="5" transform="translate(30.553 395.097) rotate(-91)" fill="none" stroke="#476f5a" stroke-linecap="round" stroke-width="1"/><line x2="5" transform="translate(30.553 395.097) rotate(-91)" fill="none" stroke="#476f5a" stroke-linecap="round" stroke-width="1"/><line x1="5.459" y2="5.564" transform="translate(30.553 389.533)" fill="none" stroke="#476f5a" stroke-linecap="round" stroke-width="1"/></g><g transform="translate(203.418 13576.333) rotate(135)"><line y1="5" transform="translate(30.553 395.097) rotate(-91)" fill="none" stroke="#476f5a" stroke-linecap="round" stroke-width="1"/><line x2="5" transform="translate(30.553 395.097) rotate(-91)" fill="none" stroke="#476f5a" stroke-linecap="round" stroke-width="1"/><line x1="5.459" y2="5.564" transform="translate(30.553 389.533)" fill="none" stroke="#476f5a" stroke-linecap="round" stroke-width="1"/></g><g transform="translate(-398.406 13054.522) rotate(-45)"><line y1="5" transform="translate(30.553 395.097) rotate(-91)" fill="none" stroke="#476f5a" stroke-linecap="round" stroke-width="1"/><line x2="5" transform="translate(30.553 395.097) rotate(-91)" fill="none" stroke="#476f5a" stroke-linecap="round" stroke-width="1"/><line x1="5.459" y2="5.564" transform="translate(30.553 389.533)" fill="none" stroke="#476f5a" stroke-linecap="round" stroke-width="1"/></g><g transform="translate(203.418 13576.333) rotate(135)"><line y1="5" transform="translate(30.553 395.097) rotate(-91)" fill="none" stroke="#476f5a" stroke-linecap="round" stroke-width="1"/><line x2="5" transform="translate(30.553 395.097) rotate(-91)" fill="none" stroke="#476f5a" stroke-linecap="round" stroke-width="1"/><line x1="5.459" y2="5.564" transform="translate(30.553 389.533)" fill="none" stroke="#476f5a" stroke-linecap="round" stroke-width="1"/></g><g transform="translate(-90.488 13311.5) rotate(45)"><line y1="5" transform="translate(0.087 5.563) rotate(-91)" fill="none" stroke="#476f5a" stroke-linecap="round" stroke-width="1"/><line x2="5" transform="translate(0.087 5.563) rotate(-91)" fill="none" stroke="#476f5a" stroke-linecap="round" stroke-width="1"/><line x1="5.459" y2="5.564" transform="translate(0.087 0)" fill="none" stroke="#476f5a" stroke-linecap="round" stroke-width="1"/></g><g transform="translate(-104.5 13319.355) rotate(-135)"><line y1="5" transform="translate(0.087 5.563) rotate(-91)" fill="none" stroke="#476f5a" stroke-linecap="round" stroke-width="1"/><line x2="5" transform="translate(0.087 5.563) rotate(-91)" fill="none" stroke="#476f5a" stroke-linecap="round" stroke-width="1"/><line x1="5.459" y2="5.564" transform="translate(0.087 0)" fill="none" stroke="#476f5a" stroke-linecap="round" stroke-width="1"/></g><g transform="translate(-90.488 13311.5) rotate(45)"><line y1="5" transform="translate(0.087 5.563) rotate(-91)" fill="none" stroke="#476f5a" stroke-linecap="round" stroke-width="1"/><line x2="5" transform="translate(0.087 5.563) rotate(-91)" fill="none" stroke="#476f5a" stroke-linecap="round" stroke-width="1"/><line x1="5.459" y2="5.564" transform="translate(0.087 0)" fill="none" stroke="#476f5a" stroke-linecap="round" stroke-width="1"/></g><g transform="translate(-104.5 13319.355) rotate(-135)"><line y1="5" transform="translate(0.087 5.563) rotate(-91)" fill="none" stroke="#476f5a" stroke-linecap="round" stroke-width="1"/><line x2="5" transform="translate(0.087 5.563) rotate(-91)" fill="none" stroke="#476f5a" stroke-linecap="round" stroke-width="1"/><line x1="5.459" y2="5.564" transform="translate(0.087 0)" fill="none" stroke="#476f5a" stroke-linecap="round" stroke-width="1"/></g></g></g></svg>