<svg xmlns="http://www.w3.org/2000/svg" width="23.01" height="22" viewBox="0 0 23.01 22"><g transform="translate(-3592.452 1748)"><rect width="22" height="22" transform="translate(3593 -1748)" fill="#fff" opacity="0"/><g transform="translate(3427.356 -2277.929)"><path d="M3062.207-539.772l5.546-3.2,5.458,3.2-5.72,3.249Z" transform="translate(-2891.058 1081.134)" fill="#9bbeaa"/><path d="M3062.428-540.43l5.342-2.962v-3.049l-5.662,3.049Z" transform="translate(-2891.047 1081.526)" fill="#9bbeaa"/><path d="M3062.148-539.365l5.546,3.133v6.271s-5.865-3.107-5.749-3.4S3062.148-539.365,3062.148-539.365Z" transform="translate(-2891.028 1080.726)" fill="#9bbeaa"/><path d="M3056-546.922l5.52,3.049,5.575-3.049L3061.287-550Z" transform="translate(-2890.355 1081.929)" fill="#9bbeaa"/><path d="M3068.4-546.98l5.669,3.281,5.313-3.136L3073.694-550Z" transform="translate(-2891.759 1081.929)" fill="#9bbeaa"/><path d="M3074.687-543.432v6.672s5.427-3.348,5.427-3.423v-6.273Z" transform="translate(-2892.469 1081.528)" fill="#9bbeaa"/><path d="M101.579,202.621l5.492-3.2v-6.184l-5.492-3.2-5.492,3.08V199.3Z" transform="translate(75.016 348.173)" fill="none" stroke="#476f5a" stroke-linecap="round" stroke-linejoin="round" stroke-miterlimit="10" stroke-width="0.8"/><path d="M107.071,231.129l-5.492,3.092-5.492-3.212" transform="translate(75.016 310.281)" fill="none" stroke="#476f5a" stroke-linecap="round" stroke-linejoin="round" stroke-miterlimit="10" stroke-width="0.8"/><line y1="6.292" transform="translate(176.595 544.502)" fill="none" stroke="#476f5a" stroke-linecap="round" stroke-miterlimit="10" stroke-width="0.8"/><path d="M174.753,119.148l5.351-3.289v-6.2L174.63,106.5l-5.492,3.035v3.241" transform="translate(7.457 425.432)" fill="none" stroke="#476f5a" stroke-linecap="round" stroke-linejoin="round" stroke-miterlimit="10" stroke-width="0.8"/><path d="M0,2.926V0" transform="translate(182.078 538.21)" fill="none" stroke="#476f5a" stroke-linecap="round" stroke-width="0.8"/><path d="M28.529,118.8l-5.048-2.939v-6.326L28.94,106.5l5.492,3.035,5.483,3.246L45.4,109.66" transform="translate(142.163 425.432)" fill="none" stroke="#476f5a" stroke-linecap="round" stroke-linejoin="round" stroke-miterlimit="10" stroke-width="0.8"/><path d="M28.94,153.8v-3.69l-5.459-3.246" transform="translate(142.163 388.097)" fill="none" stroke="#476f5a" stroke-linecap="round" stroke-linejoin="round" stroke-miterlimit="10" stroke-width="0.8"/><line x1="5.492" y2="3.246" transform="translate(171.103 534.964)" fill="none" stroke="#476f5a" stroke-linecap="round" stroke-miterlimit="10" stroke-width="0.8"/><path d="M4517,10831.194h0v-5.752l4.968-2.741v5.667" transform="translate(-4340.152 -10280.806)" fill="#bee0cd"/><path d="M4643.644,11859.513l4.778,2.719v5.635l-4.787-2.833Z" transform="translate(-4477.67 -11323.954)" fill="#bee0cd"/><path d="M4661.218,11865.277l-.055-2.439-4.8-2.838v2.472Z" transform="translate(-4479.438 -11324.461)" fill="#bee0cd"/></g></g></svg>