<svg xmlns="http://www.w3.org/2000/svg" width="22" height="22" viewBox="0 0 22 22"><g transform="translate(-3593 1908)"><rect width="22" height="22" transform="translate(3593 -1908)" fill="#fff" opacity="0"/><g transform="translate(3593.642 -1907.503)"><g transform="translate(8.22 0)"><path d="M5.4,0A5.4,5.4,0,1,1,0,5.4,5.4,5.4,0,0,1,5.4,0Z" fill="#bee0cd" stroke="#476f5a" stroke-width="0.8"/></g><path d="M476.005,563.005l4.454-2.505,5.428,1.531s.418,0,.418.974.278.974.278.974l5.707-2.923a1.071,1.071,0,0,1,.835-.139c.418.139.418.139.418.278a6.785,6.785,0,0,0,.418.974l-.418.835-7.516,4.872-6.4-1.67-1.114.557.557,1.531-.7.7-.974.418s-.278.139-.278,0-3.619-5.985-3.619-5.985a1.982,1.982,0,0,1,.278-.557,2,2,0,0,0,.278-.418l.7-.139.835-.139Z" transform="translate(-473.5 -548.304)" fill="#9bbeaa"/><path d="M1134.327,2208.286c.014-.019.029-.038.042-.057.107-.163.213-.326.318-.49a.071.071,0,0,1,.068-.037h1.83a.87.87,0,0,0-.157-.253,1.056,1.056,0,0,0-.563-.315,3.377,3.377,0,0,0-.783-.075c-.233,0-.466,0-.7,0h-.052c.01-.017.015-.028.021-.038.113-.174.227-.347.339-.521a.06.06,0,0,1,.058-.031h3.915c-.009.015-.014.026-.021.036-.113.174-.227.347-.339.522a.064.064,0,0,1-.062.032h-1.009c.008.013.013.022.019.031a1.2,1.2,0,0,1,.253.583c0,.036.026.031.048.031h1.11c-.011.019-.017.031-.025.042-.112.171-.224.342-.335.515a.066.066,0,0,1-.065.034c-.217,0-.435,0-.652,0h-.047c-.015.071-.026.139-.044.206a1.683,1.683,0,0,1-.742.993,2.455,2.455,0,0,1-1.042.371c-.073.009-.146.016-.227.024l.047.059,2.318,2.885.026.034h-1.058a.273.273,0,0,0-.019-.032l-.231-.29q-1.005-1.262-2.009-2.525a.127.127,0,0,1-.025-.072c0-.159,0-.318,0-.478v-.047h.054c.21,0,.421,0,.631,0a1.929,1.929,0,0,0,.763-.155,1.092,1.092,0,0,0,.653-.718.715.715,0,0,0,.029-.253h-2.335Z" transform="translate(-1122.453 -2204.049)" fill="#476f5a"/></g><path d="M481.708,579.745a.391.391,0,1,1,.41-.358A.41.41,0,0,1,481.708,579.745Z" transform="translate(3113.396 -2471.699)" fill="#476f5a"/><path d="M474.222,560.7l2.7-1.563a4.967,4.967,0,0,1,1.559-.644,2.966,2.966,0,0,1,1.515.183c1.033.341,2.071.666,3.108,1a1.8,1.8,0,0,0,.316.072,1.512,1.512,0,0,1,1.188,2.01c-.011.028-.015.058-.038.148.214-.109.384-.186.546-.28,1.238-.718,2.473-1.443,3.712-2.159a3.921,3.921,0,0,1,1.822-.624,1.494,1.494,0,0,1,1.447.712,1.577,1.577,0,0,1,0,1.685,1.54,1.54,0,0,1-.5.5c-2.276,1.415-4.561,2.815-6.841,4.222a3.024,3.024,0,0,1-2.49.359c-1.491-.408-2.99-.787-4.474-1.216-.392-.113-.629.077-.936.252.111.2.221.39.326.583a.967.967,0,0,1-.381,1.392c-.338.2-.677.391-1.022.575a.942.942,0,0,1-1.336-.366q-1.59-2.786-3.16-5.582a.949.949,0,0,1,.383-1.332c.322-.19.65-.372.977-.555a.975.975,0,0,1,1.443.4C474.127,560.545,474.17,560.616,474.222,560.7Zm2.23,3.95a4.347,4.347,0,0,0,.445-.258.919.919,0,0,1,.869-.122c1.553.429,3.113.837,4.668,1.261a2.339,2.339,0,0,0,1.937-.277q3.377-2.09,6.761-4.167a.785.785,0,0,0,.35-.947.756.756,0,0,0-1.018-.465,5.945,5.945,0,0,0-1.262.516c-1.234.692-2.452,1.413-3.671,2.13a2.737,2.737,0,0,1-2,.431c-1.055-.228-2.1-.5-3.148-.758a.4.4,0,0,1-.309-.514.408.408,0,0,1,.523-.263c.5.132.991.284,1.49.411a7.81,7.81,0,0,0,1.1.228.6.6,0,0,0,.713-.565.729.729,0,0,0-.568-.747q-1.484-.427-2.96-.878c-.358-.109-.7-.266-1.063-.357a2.253,2.253,0,0,0-1.689.367c-.812.457-1.615.931-2.422,1.4l-.574.334Zm.083,1.841a1.951,1.951,0,0,0-.078-.184q-1.535-2.716-3.071-5.432c-.1-.171-.2-.188-.364-.089-.291.177-.589.344-.89.5-.169.09-.2.188-.1.359q1.536,2.7,3.062,5.409c.093.165.193.209.362.11.3-.177.61-.342.911-.518A1.055,1.055,0,0,0,476.535,566.5Z" transform="translate(3122.167 -2454.052)" fill="#476f5a"/></g></svg>