<svg xmlns="http://www.w3.org/2000/svg" width="22.756" height="22" viewBox="0 0 22.756 22"><g transform="translate(-3592.6 1752)"><rect width="22" height="22" transform="translate(3593 -1752)" fill="#fff" opacity="0"/><g transform="translate(3329.911 -2472.488)"><rect width="18.395" height="14.522" transform="translate(264.87 726.361)" fill="#9bbeaa"/><path d="M230.153,431.384v14.958a.162.162,0,0,0,.162.162h18.214a.162.162,0,0,0,.162-.162V431.384" transform="translate(34.645 294.655)" fill="none" stroke="#476f5a" stroke-miterlimit="10" stroke-width="0.8"/><rect width="21.956" height="3.55" rx="0.2" transform="translate(263.089 722.488)" fill="#9bbeaa" stroke="#476f5a" stroke-miterlimit="10" stroke-width="0.8"/><line x2="0.933" transform="translate(279.876 734.45)" fill="none" stroke="#476f5a" stroke-linecap="round" stroke-miterlimit="10" stroke-width="0.5"/><line x2="0.933" transform="translate(279.876 736.543)" fill="none" stroke="#476f5a" stroke-linecap="round" stroke-miterlimit="10" stroke-width="0.5"/><line x2="5.196" transform="translate(275.614 738.435)" fill="none" stroke="#476f5a" stroke-linecap="round" stroke-miterlimit="10" stroke-width="0.5"/><rect width="8.713" height="10.65" transform="translate(269.71 726.361)" fill="#bee0cd"/><path d="M261.2,431.384v10.5h8.336v-10.5" transform="translate(8.625 294.655)" fill="none" stroke="#476f5a" stroke-miterlimit="10" stroke-width="0.8"/><path d="M5.077,8.775,3.819,7.517,3.4,7.936,5.077,9.614,8.672,6.019,8.252,5.6Z" transform="translate(268.031 723.684)" fill="#476f5a"/></g></g></svg>