<svg xmlns="http://www.w3.org/2000/svg" width="22" height="22" viewBox="0 0 22 22"><g transform="translate(-3593 1707)"><rect width="22" height="22" transform="translate(3593 -1707)" fill="#fff" opacity="0"/><g transform="translate(3388.737 -2306.755)"><path d="M214.723,673.374c-2.566,0-5.132,0-7.7,0-1.259,0-1.828-.612-1.755-1.849a8.508,8.508,0,0,1,8.55-8.13,20.255,20.255,0,0,1,3.607.171,8.446,8.446,0,0,1,6.937,7.959c.062,1.251-.494,1.846-1.76,1.849C219.976,673.379,217.35,673.374,214.723,673.374Zm0-.938q3.8,0,7.595,0c1.049,0,1.12-.084,1.048-1.156a7.44,7.44,0,0,0-6.126-6.788,18.426,18.426,0,0,0-3.962-.136,7.52,7.52,0,0,0-7.017,6.924c-.072,1.066,0,1.155,1.048,1.156Q211.018,672.439,214.725,672.436Z" transform="translate(0 -51.621)" fill="#476f5a"/><path d="M239.891,605.548a5.141,5.141,0,1,1-5.04-5.2A5.167,5.167,0,0,1,239.891,605.548Zm-.954-.026a4.189,4.189,0,1,0-4.221,4.172A4.2,4.2,0,0,0,238.938,605.522Z" transform="translate(-19.934 0)" fill="#476f5a"/><path d="M219.153,676.6q-3.707,0-7.414,0c-1.043,0-1.12-.09-1.048-1.156a7.52,7.52,0,0,1,7.017-6.924,18.426,18.426,0,0,1,3.962.136,7.44,7.44,0,0,1,6.126,6.788c.072,1.071,0,1.155-1.048,1.156Q222.95,676.6,219.153,676.6Z" transform="translate(-4.427 -55.785)" fill="#9bbeaa"/><path d="M243.235,609.763a4.189,4.189,0,1,1-4.156-4.24A4.195,4.195,0,0,1,243.235,609.763Z" transform="translate(-24.231 -4.241)" fill="#bee0cd"/></g></g></svg>